<svg width="54" height="54" viewBox="0 0 54 54" fill="none" xmlns="http://www.w3.org/2000/svg">
  <defs>
    <linearGradient id="shieldGradient" x1="0%" y1="0%" x2="100%" y2="100%">
      <stop offset="0%" style="stop-color:#1de9b6;stop-opacity:1" /> <stop offset="100%" style="stop-color:#8f5cff;stop-opacity:1" /> </linearGradient>
  </defs>

  <rect width="54" height="54" rx="12" fill="#232a45"/>

  <rect x="23" y="10" width="8" height="34" rx="4" fill="url(#shieldGradient)"/>

  <path d="M 27 10 L 40 10 C 42 10 44 12 44 14 L 44 23 L 40 23 L 40 14 C 40 13 39 13 38 13 L 27 13 Z" fill="url(#shieldGradient)"/>

  <path d="M 27 44 L 14 44 C 12 44 10 42 10 40 L 10 31 L 14 31 L 14 40 C 14 41 15 41 16 41 L 27 41 Z" fill="url(#shieldGradient)"/>

  <circle cx="27" cy="27" r="3" fill="#ffffff" opacity="0.8"/>
</svg>